<?xml version="1.0" encoding="utf-8"?>

<!DOCTYPE svg PUBLIC "-//W3C//DTD SVG 1.1//EN" "http://www.w3.org/Graphics/SVG/1.1/DTD/svg11.dtd">
<!-- Uploaded to: SVG Repo, www.svgrepo.com, Generator: SVG Repo Mixer Tools -->
<svg version="1.1" id="_x32_" xmlns="http://www.w3.org/2000/svg" xmlns:xlink="http://www.w3.org/1999/xlink" 
	 width="800px" height="800px" viewBox="0 0 512 512"  xml:space="preserve">
<style type="text/css">
<![CDATA[
	.st0{fill:#000000;}
]]>
</style>
<g>
	<path class="st0" d="M495.551,297.879c8.063-43.516,12.891-114.422-37.313-164.625c-27.938-27.938-54.281-54.266-54.281-54.266
		c-6.438-6.453-13.688-9.406-19.594-3.5l0,0c-2.531,2.531-6.891,2.797-9.406,0.281l-14.484-14.5
		c-2.531-2.516-2.25-6.875,0.266-9.406l3.484-3.484c2.531-2.516,2.531-6.609,0-9.125L328.754,3.785
		c-5.031-5.047-13.219-5.047-18.266,0L265.113,49.16c-5.047,5.063-5.047,13.234,0,18.281l35.469,35.453
		c2.516,2.531,6.594,2.531,9.125,0l2.141-2.141c2.516-2.516,6.625-2.516,9.141,0l7.172,7.172c9.672,9.672,5.641,18.125,0.594,23.172
		l0,0l-37.047,37.063l64.453,64.453l18.797-18.797c10.078-10.094,26.453-10.094,36.531,0c0,0,4.688,4.672,5.094,5.109
		c33.844,33.828,44.328,58.813,53.984,82.984C476.738,317.316,494.738,316.41,495.551,297.879z"/>
	<path class="st0" d="M68.629,507.488c6.016,6.016,15.766,6.016,21.781,0L237.879,360.02c6-6,6-15.75,0-21.766l-52.75-52.75
		c-6.016-6.016-15.75-6-21.766,0L15.895,432.973c-6.016,6.016-6.016,15.766,0,21.766L68.629,507.488z"/>
	<polygon class="st0" points="251.613,319.754 330.535,240.832 284.473,194.754 205.535,273.691 	"/>
</g>
</svg>